<svg width="32" height="32" viewBox="0 0 32 32" fill="none" xmlns="http://www.w3.org/2000/svg">
<path fill-rule="evenodd" clip-rule="evenodd" d="M16 32C24.8366 32 32 24.8366 32 16C32 7.16344 24.8366 0 16 0C7.16344 0 0 7.16344 0 16C0 24.8366 7.16344 32 16 32Z" fill="#F7931A"/>
<path fill-rule="evenodd" clip-rule="evenodd" d="M21.3313 18.7636C21.0346 18.0515 20.372 17.4527 20.372 17.4527C20.372 17.4527 21.2292 17.4458 21.7078 17.2207C22.1868 16.9957 22.6541 16.4885 22.8506 16.1987C23.047 15.9088 23.8304 14.6697 23.2775 13.377C22.8499 12.3769 22.1157 11.654 20.9979 10.9114L22.4759 8.35138L20.9199 7.45303L19.4594 9.98278C19.1122 9.78233 18.7065 9.54809 18.2742 9.29852L19.7348 6.76877L18.1789 5.8705L16.7184 8.40025C15.13 7.48321 13.6573 6.63293 13.6573 6.63293L12.711 8.27204C12.711 8.27204 13.3653 8.64984 13.6107 8.79151C13.856 8.93313 14.2763 9.21267 14.3401 9.53016C14.4043 9.84733 14.3731 9.97695 14.1369 10.3861C13.9006 10.7954 10.4555 16.7625 10.3661 16.9174C10.2767 17.0723 10.137 17.2471 9.93353 17.297C9.73033 17.347 9.58259 17.3007 9.26981 17.1201C8.95709 16.9396 8.33924 16.5829 8.33924 16.5829L6.92481 18.2939C6.92481 18.2939 8.44604 19.1722 9.98589 20.0612L8.52947 22.5838L10.0854 23.4821L11.5418 20.9596C12.0199 21.2356 12.4362 21.4759 12.727 21.6438L11.2706 24.1664L12.8266 25.0648L14.307 22.5006C14.723 22.709 15.1159 22.8946 15.3514 22.9918C15.829 23.1891 16.9004 23.6503 18.2219 23.5281C19.543 23.4056 20.3542 22.4872 20.9807 21.4526C21.6074 20.418 21.6274 19.4755 21.3313 18.7636ZM17.2406 11.084C17.2406 11.084 17.7605 11.3252 18.2435 11.6137C18.7266 11.9024 19.1468 12.1648 19.6718 12.7335C20.1965 13.3021 20.2933 14.007 19.9759 14.5909C19.6582 15.1746 19.1894 15.4151 18.6128 15.4068C18.0361 15.3983 17.3563 15.1829 16.7762 14.8772C16.1964 14.572 15.482 14.13 15.482 14.13L17.2406 11.084ZM16.3739 20.6403C15.9026 20.6338 15.0878 20.3994 14.3675 20.0522C13.6469 19.705 12.6272 19.0868 12.6272 19.0868L14.5818 15.7013C14.5818 15.7013 15.6005 16.2207 16.3415 16.7172C17.0822 17.214 17.6145 17.7866 17.8198 18.1022C18.0256 18.4175 18.3474 19.0359 17.9002 19.8105C17.4531 20.5848 16.8449 20.6467 16.3739 20.6403Z" fill="white"/>
</svg>
