<svg width="32" height="32" viewBox="0 0 32 32" fill="none" xmlns="http://www.w3.org/2000/svg">
<circle cx="16" cy="16" r="16" fill="white"/>
<path d="M10.1738 13.4467L16 7.232L21.829 13.4493L25.219 9.83334L16 0L6.784 9.8304L10.1739 13.4464L10.1738 13.4467ZM1 16L4.39012 12.3834L7.78 15.9992L4.38988 19.6154L1 16ZM10.1738 18.5537L16 24.768L21.8289 18.5508L25.2207 22.1649L25.219 22.1668L16 32L6.784 22.1696L6.7792 22.1645L10.1741 18.5533L10.1738 18.5537ZM24.22 16.0015L27.6101 12.3854L31 16.0013L27.61 19.6174L24.22 16.0015Z" fill="#F3BA2F"/>
<path d="M19.0738 15.7979H19.0752L15.8901 12.4038L13.5358 14.9116L13.2654 15.2L12.7076 15.7944L12.7031 15.7991L12.7076 15.8039L15.8901 19.1955L19.0754 15.8014L19.0769 15.7995L19.0741 15.7979" fill="#F3BA2F"/>
</svg>
