<svg width="40" height="40" viewBox="0 0 40 40" fill="none" xmlns="http://www.w3.org/2000/svg">
<circle cx="20" cy="20" r="20" fill="url(#paint0_linear_1332_26809)"/>
<path d="M28.2788 18.761L18.7581 28.2816C16.9285 30.1112 13.9647 30.1112 12.1351 28.2816C10.3055 26.452 10.3055 23.4882 12.1351 21.6586L22.4836 11.31C23.6261 10.1676 25.4805 10.1676 26.623 11.31C27.7655 12.4525 27.7655 14.307 26.623 15.4494L17.9303 24.1422C17.4749 24.5975 16.7298 24.5975 16.2745 24.1422C15.8192 23.6869 15.8192 22.9418 16.2745 22.4864L24.1394 14.6216L22.8976 13.3797L15.0327 21.2446C13.8902 22.3871 13.8902 24.2416 15.0327 25.384C16.1751 26.5265 18.0296 26.5265 19.1721 25.384L27.8649 16.6913C29.6945 14.8616 29.6945 11.8978 27.8649 10.0682C26.0352 8.23859 23.0714 8.23859 21.2418 10.0682L10.8933 20.4167C8.3765 22.9335 8.3765 27.0067 10.8933 29.5234C13.41 32.0402 17.4832 32.0402 20 29.5234L29.5206 20.0028L28.2788 18.761Z" fill="white"/>
<defs>
<linearGradient id="paint0_linear_1332_26809" x1="0" y1="0" x2="40" y2="40" gradientUnits="userSpaceOnUse">
<stop stop-color="#6B73FF"/>
<stop offset="1" stop-color="#000DFF"/>
</linearGradient>
</defs>
</svg>
