<svg width="32" height="32" viewBox="0 0 32 32" fill="none" xmlns="http://www.w3.org/2000/svg">
<rect width="32" height="32" rx="16" fill="#1BA27A"/>
<path fill-rule="evenodd" clip-rule="evenodd" d="M26.7835 5H4.25977V10.6H12.5189V31.4H18.5252V10.6H26.7835V5Z" fill="white"/>
<path fill-rule="evenodd" clip-rule="evenodd" d="M15.5221 18.8727C26.387 18.8727 29.0363 16.7255 29.0363 15.4C29.0363 14.0745 22.9858 13 15.5221 13C8.05835 13 2.00781 14.0745 2.00781 15.4C2.00781 16.7255 4.65712 18.8727 15.5221 18.8727ZM15.522 17.2C22.1565 17.2 27.5347 16.3941 27.5347 15.4C27.5347 14.4059 22.1565 13.6 15.522 13.6C8.88763 13.6 3.50937 14.4059 3.50937 15.4C3.50937 16.3941 8.88763 17.2 15.522 17.2Z" fill="white"/>
<path fill-rule="evenodd" clip-rule="evenodd" d="M12.5186 16.584C12.5186 16.584 14.518 16.8149 15.5217 16.8149C16.5255 16.8149 18.5249 16.584 18.5249 16.584V17.0782C18.5249 17.0782 17.6271 17.2451 15.5217 17.2451C13.4164 17.2451 12.5186 17.0782 12.5186 17.0782V16.584Z" fill="#1BA27A"/>
</svg>
